<svg width="944" height="950" viewBox="0 0 944 950" fill="none" xmlns="http://www.w3.org/2000/svg">
<path d="M549.491 31.4999L394.992 31.5C348.492 3.66665 208.593 -20.8 20.9925 104C7.15917 121.5 -5.3075 193.1 55.4925 339.5C116.293 485.9 167.826 484.167 185.993 465C196.159 459.167 223.493 352.4 227.493 304V430.5L242.493 477L259.992 516L288.992 549L295.492 557.5L305.992 607L316.992 715L324.992 865L386.492 931L431.992 940.5L504.491 940.5H512.491L557.991 931L619.491 865L627.491 715L638.491 607L648.991 557.5L655.492 549L684.492 516L701.992 477L716.992 430.5V304C720.992 352.4 748.325 459.167 758.492 465C776.658 484.167 828.192 485.9 888.992 339.5C949.792 193.1 937.325 121.5 923.491 104C735.891 -20.8001 595.991 3.66654 549.491 31.4999Z" stroke="black" stroke-width="18"/>
</svg>
