<svg width="2075" height="2075" viewBox="0 0 2075 2075" fill="none" xmlns="http://www.w3.org/2000/svg">
<path d="M1114.49 594.5L959.992 594.5C913.492 566.667 773.593 542.2 585.993 667C572.159 684.5 559.693 756.1 620.493 902.5C681.293 1048.9 732.826 1047.17 750.993 1028C761.159 1022.17 788.493 915.4 792.493 867V993.5L807.493 1040L824.992 1079L853.992 1112L860.492 1120.5L870.992 1170L881.992 1278L889.992 1428L951.492 1494L996.992 1503.5L1069.49 1503.5H1077.49L1122.99 1494L1184.49 1428L1192.49 1278L1203.49 1170L1213.99 1120.5L1220.49 1112L1249.49 1079L1266.99 1040L1281.99 993.5V867C1285.99 915.4 1313.32 1022.17 1323.49 1028C1341.66 1047.17 1393.19 1048.9 1453.99 902.5C1514.79 756.1 1502.32 684.5 1488.49 667C1300.89 542.2 1160.99 566.667 1114.49 594.5Z" stroke="black" stroke-width="18"/>
</svg>
